<svg width="24" height="24" viewBox="0 0 24 24" fill="none" xmlns="http://www.w3.org/2000/svg">
<path fill-rule="evenodd" clip-rule="evenodd" d="M18.988 7.48096C19.0309 6.93831 18.632 6.46095 18.0903 6.40693L12.2861 5.82814C11.7395 5.77363 11.2513 6.17015 11.1926 6.71627L10.1453 16.4541C10.086 17.0058 10.4873 17.5004 11.0394 17.556L17.117 18.1676C17.6748 18.2237 18.1697 17.8104 18.214 17.2516L18.988 7.48096ZM11.7424 3.49664C10.3643 3.3518 9.12965 4.35156 8.9848 5.72967L7.8046 16.9585C7.65976 18.3366 8.65952 19.5712 10.0376 19.7161L17.5235 20.5029C18.9016 20.6477 20.1363 19.648 20.2811 18.2698L21.4613 7.04101C21.6061 5.66289 20.6064 4.42829 19.2283 4.28344L11.7424 3.49664Z" fill="#0E0F0F"/>
<path d="M4.10548 7.44987C3.09529 8.02984 2.74653 9.31892 3.3265 10.3291L7.3353 17.3116L7.7085 13.7256L5.66001 10.1575C5.3825 9.67417 5.55371 9.05723 6.04063 8.78601L8.23561 7.56339L8.54532 4.90085L4.10548 7.44987Z" fill="#0E0F0F"/>
</svg>
